<svg width="11" height="11" viewBox="0 0 11 11" fill="none" xmlns="http://www.w3.org/2000/svg">
<g id="clock-time-three-outline" clip-path="url(#clip0_709_12)">
<path id="Vector" d="M5.49984 9.16669C7.5165 9.16669 9.1665 7.51669 9.1665 5.50002C9.1665 3.48335 7.5165 1.83335 5.49984 1.83335C3.48317 1.83335 1.83317 3.48335 1.83317 5.50002C1.83317 7.51669 3.48317 9.16669 5.49984 9.16669ZM5.49984 0.916687C8.02067 0.916687 10.0832 2.97919 10.0832 5.50002C10.0832 8.02085 8.02067 10.0834 5.49984 10.0834C2.979 10.0834 0.916504 8.02085 0.916504 5.50002C0.916504 2.97919 2.979 0.916687 5.49984 0.916687ZM7.7915 5.27085V5.95835H5.0415V3.20835H5.729V5.27085H7.7915Z" fill="#D98200"/>
</g>
<defs>
<clipPath id="clip0_709_12">
<rect width="11" height="11" fill="white"/>
</clipPath>
</defs>
</svg>
